<svg  viewbox="0 0 32 32" width="32" height="32" stroke="currentColor" fill="currentColor"><path d="M4 8C4 5.8 5.8 4 8 4H24C26.2 4 28 5.8 28 8V24C28 26.2 26.2 28 24 28H8C5.8 28 4 26.2 4 24V8ZM23 16C23 16.3 22.9 16.5 22.7 16.7L19.7 19.7C19.3 20.1 18.7 20.1 18.3 19.7 17.9 19.3 17.9 18.7 18.3 18.3L20.6 16 18.3 13.7C17.9 13.3 17.9 12.7 18.3 12.3 18.7 11.9 19.3 11.9 19.7 12.3L22.7 15.3C22.9 15.5 23 15.7 23 16ZM9.3 15.3C9.1 15.5 9 15.7 9 16 9 16.3 9.1 16.5 9.3 16.7L12.3 19.7C12.7 20.1 13.3 20.1 13.7 19.7 14.1 19.3 14.1 18.7 13.7 18.3L11.4 16 13.7 13.7C14.1 13.3 14.1 12.7 13.7 12.3 13.3 11.9 12.7 11.9 12.3 12.3L9.3 15.3Z" fill-rule="evenodd" clip-rule="evenodd" /></svg>
